PathFileType	4	(X/Y/Z)	/Users/mathieubourgeois/Desktop/Analyse/Traitement/Sujet_07/Transformed_Static_Sujet_07_Tpose.trc
DataRate	CameraRate	NumFrames	NumMarkers	Units	OrigDataRate	OrigDataStartFrame	OrigNumFrames
120.000000	120.000000	6	36	mm	120.000000	0	286
Frame#	Time	RFHD			LFHD			RBHD			LBHD			C7			CLAV			RSHO			LSHO			STRN			T10			RBWT			LBWT			RFWT			LFWT			RKNI			LKNI			RKNE			LKNE			LANI			RANI			LANE			RANE			LTOE			RTOE			LHEE			RHEE			RHUM			LHUM			RRAD			LRAD			RWRA			RWRB			LWRA			LWRB			LCAR			RCAR			
		X1	Y1	Z1	X2	Y2	Z2	X3	Y3	Z3	X4	Y4	Z4	X5	Y5	Z5	X6	Y6	Z6	X7	Y7	Z7	X8	Y8	Z8	X9	Y9	Z9	X10	Y10	Z10	X11	Y11	Z11	X12	Y12	Z12	X13	Y13	Z13	X14	Y14	Z14	X15	Y15	Z15	X16	Y16	Z16	X17	Y17	Z17	X18	Y18	Z18	X19	Y19	Z19	X20	Y20	Z20	X21	Y21	Z21	X22	Y22	Z22	X23	Y23	Z23	X24	Y24	Z24	X25	Y25	Z25	X26	Y26	Z26	X27	Y27	Z27	X28	Y28	Z28	X29	Y29	Z29	X30	Y30	Z30	X31	Y31	Z31	X32	Y32	Z32	X33	Y33	Z33	X34	Y34	Z34	X35	Y35	Z35	X36	Y36	Z36	

1	0	-544.726318359375	1757.993041992188	333.6769104003905	-411.9783020019532	1757.598266601562	345.1080017089842	-545.9814453125	1755.364135742188	180.3915405273436	-403.7062683105469	1754.715942382812	177.1912689208983	-473.4207458496094	1587.579956054688	147.9667205810545	-485.9583740234376	1533.548095703125	268.1792602539061	-627.4172973632812	1597.242309570312	174.9087982177733	-337.31298828125	1599.55859375	171.9761810302733	-482.9141845703126	1346.574096679688	307.8304138183593	-479.7331848144531	1340.200439453125	94.52023315429673	-541.265625	1099.449462890625	176.5162200927733	-426.38037109375	1094.340576171875	172.4945373535155	-588.9078979492188	1063.98974609375	351.1285095214843	-373.5539550781251	1065.569946289062	342.0393981933593	-545.5360717773438	476.2291564941406	203.9759521484374	-442.6951599121094	476.3216857910156	171.7722778320312	-649.3042602539062	532.6636352539062	205.612579345703	-336.1642761230469	518.7341918945312	182.3678131103515	-426.8004760742188	86.61656188964845	210.9296417236328	-541.5590209960938	89.90952301025392	203.4916076660156	-342.6238403320312	69.08498382568361	179.3983917236328	-627.1539916992188	72.35689544677736	178.5948333740234	-350.5055541992188	29.54869461059573	397.0845031738281	-605.3936767578125	31.89589500427249	393.0653076171874	-390.5723571777344	50.25131225585938	132.7822875976562	-583.5958862304688	50.90198135375977	127.1752548217773	-945.3486328125	1471.2958984375	219.1088867187498	-24.31200408935549	1445.187255859375	211.8146972656249	-949.5534057617188	1521.987182617188	175.8267822265623	-9.354032516479514	1501.131469726562	175.9923400878905	-1216.991943359375	1600.93994140625	217.5926666259763	-1223.864868164062	1533.935424804688	189.9997100830076	249.3253631591797	1553.172119140625	240.8669891357421	261.7374267578125	1480.890869140625	219.1068725585937	354.2913513183594	1538.029052734375	212.7081298828125	-1325.842529296875	1580.684814453125	198.8909759521482	
2	0.008333333333333333	-544.6259765625	1758.021606445312	333.7305908203123	-411.8819580078126	1757.564697265625	345.1956481933592	-545.8397827148438	1755.401123046875	180.4463500976561	-403.5533142089844	1754.70361328125	177.2836151123045	-473.3243103027344	1587.5712890625	148.0455780029295	-485.9149780273438	1533.552856445312	268.2682800292967	-627.3137817382812	1597.278198242188	174.9510192871092	-337.2179870605469	1599.524291992188	172.0670013427733	-482.9005737304688	1346.572631835938	307.898712158203	-479.7108154296875	1340.213012695312	94.55463409423814	-541.279296875	1099.462036132812	176.5519409179686	-426.4002380371094	1094.343505859375	172.5460815429686	-588.9329223632812	1063.984741210938	351.158721923828	-373.5644836425782	1065.560424804688	342.0725708007811	-545.5364379882812	476.2344665527344	203.9763641357421	-442.6972045898438	476.3305969238281	171.8038330078124	-649.3123168945312	532.6732788085938	205.6354370117186	-336.1788635253906	518.734375	182.4069061279296	-426.7897644042969	86.62554168701173	210.9383850097656	-541.5715942382812	89.91033935546876	203.5082550048828	-342.6092834472656	69.11866760253908	179.3603363037109	-627.1608276367188	72.35809326171876	178.5760040283202	-350.5007629394532	29.5367012023926	397.0742492675781	-605.3937377929688	31.89638710021975	393.0748291015624	-390.5700073242188	50.25378036499024	132.7927093505859	-583.6014404296875	50.91191101074219	127.1677093505859	-945.2635498046875	1471.340454101562	219.1481018066404	-24.20008468627932	1445.18701171875	211.838150024414	-949.4827270507812	1522.0263671875	175.8731079101561	-9.273023605346701	1501.168701171875	176.021759033203	-1216.925048828125	1600.976318359375	217.6326751708982	-1223.787841796875	1533.972412109375	190.0118408203123	249.3975677490234	1553.252807617188	240.8790130615234	261.8216552734375	1480.962524414062	219.0738067626953	354.3767700195312	1538.155883789062	212.6653442382812	-1325.768310546875	1580.709106445312	198.9419860839841	
3	0.01666666666666667	-544.5360107421875	1758.036010742188	333.7733764648436	-411.7994384765626	1757.554443359375	345.2861328124998	-545.6996459960938	1755.441040039062	180.4827270507811	-403.3999328613281	1754.690551757812	177.3927307128905	-473.2281799316406	1587.577026367188	148.1133422851561	-485.8421020507813	1533.544921875	268.328887939453	-627.2192993164062	1597.314208984375	174.9755401611326	-337.1360778808594	1599.502563476562	172.1319732666014	-482.8798522949219	1346.5703125	307.9486389160155	-479.6659545898438	1340.220947265625	94.60686492919908	-541.2982177734375	1099.466064453125	176.5953979492186	-426.4312744140625	1094.34326171875	172.5889434814452	-588.9612426757812	1063.98388671875	351.1967773437499	-373.5896606445313	1065.558837890625	342.1289062499999	-545.5562133789062	476.2274475097656	203.9952087402343	-442.7113342285156	476.3322448730469	171.8275146484374	-649.3280029296875	532.6729736328125	205.6355895996093	-336.1885986328125	518.7495727539062	182.4346313476562	-426.7894287109375	86.6136932373047	210.9384613037109	-541.5675659179688	89.92918395996095	203.4888763427734	-342.6195068359375	69.11666107177736	179.3568115234375	-627.1573486328125	72.36646270751955	178.5945739746093	-350.5047912597657	29.53889083862307	397.0771179199218	-605.392333984375	31.89776420593264	393.0715332031249	-390.5653686523438	50.2599220275879	132.7982177734374	-583.5946044921875	50.90691375732423	127.178611755371	-945.18017578125	1471.373657226562	219.1810302734373	-24.09521865844729	1445.194458007812	211.8557586669921	-949.3910522460938	1522.078979492188	175.9137878417967	-9.177024841308615	1501.21533203125	176.0463714599609	-1216.84521484375	1601.006958007812	217.6574707031248	-1223.718505859375	1534.01953125	190.0285797119138	249.4851837158203	1553.324829101562	240.8822784423828	261.9170532226562	1481.046020507812	219.0290069580078	354.4598388671875	1538.270874023438	212.605712890625	-1325.707153320312	1580.718383789062	198.990539550781	
4	0.025	-544.4213256835938	1758.131469726562	333.8734436035155	-410.5496215820313	1757.310180664062	345.4407958984373	-545.720703125	1755.68408203125	179.3138885498045	-403.2184143066406	1754.529541015625	177.4140014648436	-473.1349487304688	1587.568237304688	148.1819763183592	-485.7601623535157	1533.544677734375	268.3946228027342	-627.1228637695312	1597.211059570312	174.9946899414061	-337.0546569824219	1599.482666015625	172.2026367187499	-482.8544311523438	1346.556762695312	308.0114440917968	-479.6158752441406	1340.2255859375	94.64954376220689	-541.3311157226562	1099.489135742188	176.4884185791014	-426.3177795410156	1094.318725585938	172.5884552001952	-588.9930419921875	1063.999877929688	351.2629394531249	-373.6277465820313	1065.550903320312	342.1850280761718	-545.5726318359375	476.2364807128906	204.003677368164	-442.6978759765625	476.3707275390625	170.8467254638671	-649.329345703125	532.7192993164062	205.6081542968749	-336.1951599121094	518.7468872070312	182.4734497070312	-427.0834045410156	86.41511535644533	210.5724487304687	-541.624755859375	89.93211364746095	203.637954711914	-343.0177917480469	69.15875244140626	180.0023803710937	-627.0098876953125	71.96315002441408	179.2965850830077	-350.5045166015626	29.53961372375491	397.0783996582031	-605.3961181640625	31.90296554565432	393.0727539062499	-390.5713195800781	50.26364517211915	132.7968444824218	-583.6329956054688	50.8917579650879	127.2222137451171	-945.108154296875	1471.406982421875	219.2111968994139	-23.98892021179202	1445.209106445312	211.8801116943359	-949.3195190429688	1522.114379882812	175.942184448242	-9.09125328063967	1501.254760742188	176.0587463378905	-1216.76904296875	1601.029296875	217.6983947753904	-1223.637084960938	1534.050048828125	190.0441741943357	249.5675048828125	1553.412719726562	240.861831665039	261.9996032714844	1481.120361328125	218.9707946777343	354.5162963867188	1538.455078125	211.8524780273437	-1325.9970703125	1580.865356445312	198.2833404541013	
5	0.03333333333333333	-544.07421875	1758.012573242188	333.8872985839842	-410.9220581054688	1757.221313476562	345.5144958496092	-545.6782836914062	1755.692260742188	179.5782165527342	-403.0862426757812	1754.719482421875	177.3103179931639	-473.220458984375	1587.787109375	148.1040039062499	-485.6573181152344	1533.540893554688	268.4627685546873	-627.0714721679688	1597.218139648438	175.0071716308592	-336.9748840332031	1599.6298828125	172.1981658935546	-482.7850952148438	1346.562866210938	308.089630126953	-479.7961730957031	1340.321533203125	94.19892883300767	-541.37158203125	1099.529174804688	176.4704132080077	-426.4897766113281	1094.3564453125	172.6512756347655	-588.9984130859375	1064.017578125	351.2561645507811	-373.6564025878907	1065.576538085938	342.235137939453	-545.5931396484375	476.2247314453125	203.9662933349609	-442.5437927246094	476.4103088378906	171.1409149169921	-649.29541015625	532.6869506835938	205.5327911376952	-336.2247314453125	518.7131958007812	182.4770050048828	-426.7453308105469	86.45912933349611	210.8321990966796	-541.6580200195312	90.1062469482422	204.2464752197265	-342.8800659179688	69.07250976562501	180.0275573730468	-627.0615234375	72.01155853271486	179.3907318115234	-350.4474792480469	29.49102210998538	397.1119079589843	-605.3369750976562	31.87681007385256	393.1302490234374	-390.6528015136719	50.23656845092774	132.7681121826171	-583.5609130859375	50.85963821411134	127.1183700561523	-945.0559692382812	1471.498046875	219.2850799560545	-23.84032440185549	1445.239624023438	211.8019561767577	-949.3349609375	1522.224975585938	175.8574066162107	-9.272845268249533	1501.459838867188	175.5831146240234	-1216.474365234375	1601.229248046875	218.0118865966795	-1223.617919921875	1534.13427734375	190.0362701416013	249.5691680908203	1553.457153320312	241.0147094726562	262.21044921875	1481.026245117188	218.9793243408203	355.0014038085938	1538.80419921875	211.3206939697265	-1326.001220703125	1580.880126953125	198.5185852050779	
6	0.04166666666666666	-543.896728515625	1758.019165039062	333.9164428710936	-410.7641296386719	1757.37353515625	345.6138305664061	-545.6039428710938	1755.812622070312	179.4499664306639	-402.9344177246094	1754.619873046875	177.3470458984373	-473.0550842285156	1587.565185546875	148.2978210449217	-485.5885620117188	1533.517944335938	268.5358276367186	-626.9714965820312	1597.306884765625	175.0716552734373	-336.9367065429688	1599.546752929688	172.263702392578	-482.6980590820313	1346.568481445312	307.940948486328	-479.7313537597656	1340.274780273438	95.01654052734361	-541.3676147460938	1099.537475585938	176.5072174072264	-426.4692077636719	1094.311889648438	172.7092437744139	-589.0357666015625	1064.015747070312	351.3489685058593	-373.6848449707032	1065.532592773438	342.2987365722655	-545.619873046875	476.2483520507812	204.0257720947265	-442.554931640625	476.4011535644531	171.1435394287109	-649.2623291015625	532.6826782226562	205.5887298583983	-336.2328796386719	518.7119750976562	182.5343627929687	-426.7129211425781	86.46206665039064	210.8268432617187	-541.5341186523438	89.95753479003908	203.6428222656249	-342.9164428710938	69.10155487060548	179.8987884521484	-627.078369140625	72.01499176025392	179.4079284667968	-350.4666748046876	29.55066299438479	397.1465759277343	-605.3414306640625	31.93758392333987	393.1285095214843	-390.6316833496094	50.23993682861329	132.8730773925781	-583.7239379882812	50.92209625244141	127.5073852539062	-944.9971313476562	1471.485229492188	219.2831573486326	-23.74835014343264	1445.2529296875	211.8856811523437	-949.257080078125	1522.237426757812	175.8794097900389	-9.100144386291525	1501.270751953125	176.2873535156249	-1216.626953125	1601.129272460938	217.7674102783201	-1223.540405273438	1534.152954101562	190.0504455566404	249.7890167236328	1553.534790039062	240.8412017822265	262.217041015625	1481.136108398438	218.9398193359374	354.9269104003906	1538.746948242188	211.4966430664062	-1325.91357421875	1580.90869140625	198.544982910156	
